<svg width="29" height="29" viewBox="0 0 29 29" fill="none" xmlns="http://www.w3.org/2000/svg">
<circle cx="14.5" cy="14.5" r="14.5" fill="white"/>
<path d="M9.7 22C9.5 22 9.33333 21.9333 9.2 21.8C9.06667 21.6667 9 21.5 9 21.3V18.6C9 18.4556 9.05 18.325 9.15 18.2083C9.25 18.0917 9.37778 18.0111 9.53333 17.9667L11.8333 17.5C11.9889 17.4778 12.1472 17.4917 12.3083 17.5417C12.4694 17.5917 12.6 17.6667 12.7 17.7667L14.2667 19.3333C14.6889 19.0889 15.0889 18.8194 15.4667 18.525C15.8444 18.2306 16.2056 17.9111 16.55 17.5667C16.9167 17.2111 17.2528 16.8417 17.5583 16.4583C17.8639 16.075 18.1278 15.6778 18.35 15.2667L16.7333 13.6333C16.6444 13.5444 16.5833 13.4389 16.55 13.3167C16.5167 13.1944 16.5111 13.0444 16.5333 12.8667L16.9667 10.5333C16.9889 10.3889 17.0611 10.2639 17.1833 10.1583C17.3056 10.0528 17.4444 10 17.6 10H20.3C20.5 10 20.6667 10.0667 20.8 10.2C20.9333 10.3333 21 10.5 21 10.7C21 12.0889 20.6972 13.4611 20.0917 14.8167C19.4861 16.1722 18.6278 17.4056 17.5167 18.5167C16.4056 19.6278 15.1722 20.4861 13.8167 21.0917C12.4611 21.6972 11.0889 22 9.7 22ZM18.9667 14C19.1556 13.5667 19.3 13.1278 19.4 12.6833C19.5 12.2389 19.5778 11.7889 19.6333 11.3333H18.1667L17.8667 12.9L18.9667 14ZM13 19.9333L11.9 18.8333L10.3333 19.1667V20.6333C10.7889 20.6 11.2389 20.5222 11.6833 20.4C12.1278 20.2778 12.5667 20.1222 13 19.9333Z" fill="black"/>
</svg>
