<svg width="64" height="64" viewBox="0 0 64 64" fill="none" xmlns="http://www.w3.org/2000/svg">
<path d="M22 34.2001C22 36.7992 23.0244 39.2921 24.8476 41.1298C26.6709 42.9678 29.1438 44 31.7222 44C34.3007 44 36.7736 42.9678 38.5969 41.1298C40.4201 39.2921 41.4444 36.7992 41.4444 34.2001V25.8C41.4444 23.2009 40.4201 20.7083 38.5969 18.8704C36.7736 17.0326 34.3007 16 31.7222 16C29.1438 16 26.6709 17.0326 24.8476 18.8704C23.0244 20.7083 22 23.2009 22 25.8V34.2001Z" stroke="white" stroke-linecap="round" stroke-linejoin="round"/>
<path d="M31.5 22.5V36.5M31.5 36.5L29 34M31.5 36.5L34 34" stroke="white"/>
</svg>
